{
    "asset" : {
        "generator" : "Khronos glTF Blender I/O v1.1.46",
        "version" : "2.0"
    },
    "scene" : 0,
    "scenes" : [
        {
            "name" : "Scene",
            "nodes" : [
                0,
                1,
                2,
                3,
                4,
                5,
                6,
                7
            ]
        }
    ],
    "nodes" : [
        {
            "name" : "Spot.001",
            "rotation" : [
                0.6185477375984192,
                0,
                0,
                0.785747230052948
            ],
            "scale" : [
                1,
                2.63588809967041,
                2.541048049926758
            ],
            "translation" : [
                43.39215087890625,
                8.267870903015137,
                7.9428606033325195
            ]
        },
        {
            "name" : "Spot.002",
            "rotation" : [
                0.6185477375984192,
                0,
                0,
                0.785747230052948
            ],
            "scale" : [
                1,
                2.63588809967041,
                2.541048049926758
            ],
            "translation" : [
                30.668838500976562,
                8.267870903015137,
                7.9428606033325195
            ]
        },
        {
            "name" : "Spot.003",
            "rotation" : [
                0.6185477375984192,
                0,
                0,
                0.785747230052948
            ],
            "scale" : [
                1,
                2.63588809967041,
                2.541048049926758
            ],
            "translation" : [
                17.12028694152832,
                8.267870903015137,
                7.9428606033325195
            ]
        },
        {
            "name" : "Spot.004",
            "rotation" : [
                0.6185477375984192,
                0,
                0,
                0.785747230052948
            ],
            "scale" : [
                1,
                2.63588809967041,
                2.541048049926758
            ],
            "translation" : [
                3.711963653564453,
                8.267870903015137,
                7.9428606033325195
            ]
        },
        {
            "name" : "Spot.005",
            "rotation" : [
                0.6185477375984192,
                0,
                0,
                0.785747230052948
            ],
            "scale" : [
                1,
                2.63588809967041,
                2.541048049926758
            ],
            "translation" : [
                -9.647899627685547,
                8.267870903015137,
                7.9428606033325195
            ]
        },
        {
            "name" : "Spot.006",
            "rotation" : [
                0.6185477375984192,
                0,
                0,
                0.785747230052948
            ],
            "scale" : [
                1,
                2.63588809967041,
                2.541048049926758
            ],
            "translation" : [
                -23.261009216308594,
                8.267870903015137,
                7.9428606033325195
            ]
        },
        {
            "name" : "Spot.007",
            "rotation" : [
                0.6185477375984192,
                0,
                0,
                0.785747230052948
            ],
            "scale" : [
                1,
                2.63588809967041,
                2.541048049926758
            ],
            "translation" : [
                -36.61839294433594,
                8.267870903015137,
                7.9428606033325195
            ]
        },
        {
            "mesh" : 0,
            "name" : "Cube",
            "scale" : [
                55.488319396972656,
                1,
                15.844985961914062
            ],
            "translation" : [
                0,
                -0.8959876298904419,
                -9.844513893127441
            ]
        }
    ],
    "materials" : [
        {
            "doubleSided" : true,
            "emissiveFactor" : [
                0,
                0,
                0
            ],
            "name" : "Material",
            "pbrMetallicRoughness" : {
                "baseColorTexture" : {
                    "index" : 0,
                    "texCoord" : 0
                },
                "metallicFactor" : 0,
                "roughnessFactor" : 1
            }
        }
    ],
    "meshes" : [
        {
            "name" : "Cube.015",
            "primitives" : [
                {
                    "attributes" : {
                        "POSITION" : 0,
                        "NORMAL" : 1,
                        "TEXCOORD_0" : 2,
                        "TEXCOORD_1" : 3
                    },
                    "indices" : 4,
                    "material" : 0
                }
            ]
        }
    ],
    "textures" : [
        {
            "source" : 0
        }
    ],
    "images" : [
        {
            "bufferView" : 5,
            "mimeType" : "image/jpeg",
            "name" : "bake"
        }
    ],
    "accessors" : [
        {
            "bufferView" : 0,
            "componentType" : 5126,
            "count" : 20050,
            "max" : [
                1.0323445796966553,
                20.05374526977539,
                1.7244776487350464
            ],
            "min" : [
                -1.0249210596084595,
                -2.351196765899658,
                -1.2327728271484375
            ],
            "type" : "VEC3"
        },
        {
            "bufferView" : 1,
            "componentType" : 5126,
            "count" : 20050,
            "type" : "VEC3"
        },
        {
            "bufferView" : 2,
            "componentType" : 5126,
            "count" : 20050,
            "type" : "VEC2"
        },
        {
            "bufferView" : 3,
            "componentType" : 5126,
            "count" : 20050,
            "type" : "VEC2"
        },
        {
            "bufferView" : 4,
            "componentType" : 5123,
            "count" : 22680,
            "type" : "SCALAR"
        }
    ],
    "bufferViews" : [
        {
            "buffer" : 0,
            "byteLength" : 240600,
            "byteOffset" : 0
        },
        {
            "buffer" : 0,
            "byteLength" : 240600,
            "byteOffset" : 240600
        },
        {
            "buffer" : 0,
            "byteLength" : 160400,
            "byteOffset" : 481200
        },
        {
            "buffer" : 0,
            "byteLength" : 160400,
            "byteOffset" : 641600
        },
        {
            "buffer" : 0,
            "byteLength" : 45360,
            "byteOffset" : 802000
        },
        {
            "buffer" : 0,
            "byteLength" : 1399690,
            "byteOffset" : 847360
        }
    ],
    "buffers" : [
        {
            "byteLength" : 2247052,
            "uri" : "data:application/octet-stream;base64,"
        }
    ]
}
