{
    "asset" : {
        "generator" : "Khronos glTF Blender I/O v1.1.46",
        "version" : "2.0"
    },
    "scene" : 0,
    "scenes" : [
        {
            "name" : "Scene",
            "nodes" : [
                0
            ]
        }
    ],
    "nodes" : [
        {
            "mesh" : 0,
            "name" : "cloth_parent.003",
            "scale" : [
                0.0014739533653482795,
                0.0014739533653482795,
                0.0014739533653482795
            ],
            "translation" : [
                0,
                0,
                0.40376266837120056
            ]
        }
    ],
    "materials" : [
        {
            "doubleSided" : true,
            "emissiveFactor" : [
                0,
                0,
                0
            ],
            "name" : "Material.006",
            "pbrMetallicRoughness" : {
                "baseColorFactor" : [
                    0.800000011920929,
                    0.800000011920929,
                    0.800000011920929,
                    1
                ],
                "metallicFactor" : 0,
                "roughnessFactor" : 0.4000000059604645
            }
        }
    ],
    "meshes" : [
        {
            "name" : "cloth_shape_0.051",
            "primitives" : [
                {
                    "attributes" : {
                        "POSITION" : 0,
                        "NORMAL" : 1,
                        "TEXCOORD_0" : 2
                    },
                    "indices" : 3,
                    "material" : 0
                }
            ]
        }
    ],
    "accessors" : [
        {
            "bufferView" : 0,
            "componentType" : 5126,
            "count" : 8354,
            "max" : [
                482.2545166015625,
                1584.365478515625,
                358.55950927734375
            ],
            "min" : [
                -393.32958984375,
                83.08877563476562,
                -757.599365234375
            ],
            "type" : "VEC3"
        },
        {
            "bufferView" : 1,
            "componentType" : 5126,
            "count" : 8354,
            "type" : "VEC3"
        },
        {
            "bufferView" : 2,
            "componentType" : 5126,
            "count" : 8354,
            "type" : "VEC2"
        },
        {
            "bufferView" : 3,
            "componentType" : 5123,
            "count" : 41169,
            "type" : "SCALAR"
        }
    ],
    "bufferViews" : [
        {
            "buffer" : 0,
            "byteLength" : 100248,
            "byteOffset" : 0
        },
        {
            "buffer" : 0,
            "byteLength" : 100248,
            "byteOffset" : 100248
        },
        {
            "buffer" : 0,
            "byteLength" : 66832,
            "byteOffset" : 200496
        },
        {
            "buffer" : 0,
            "byteLength" : 82338,
            "byteOffset" : 267328
        }
    ],
    "buffers" : [
        {
            "byteLength" : 349668,
            "uri" : "data:application/octet-stream;base64,"
        }
    ]
}
